<svg xmlns="http://www.w3.org/2000/svg" xmlns:xlink="http://www.w3.org/1999/xlink" width="500" zoomAndPan="magnify" viewBox="0 0 375 374.999991" height="500" preserveAspectRatio="xMidYMid meet" version="1.0"><defs><g/><clipPath id="4de3f29c13"><path d="M 37.628906 44.644531 L 337.628906 44.644531 L 337.628906 344.644531 L 37.628906 344.644531 Z M 37.628906 44.644531 " clip-rule="nonzero"/></clipPath><clipPath id="8050c763e1"><path d="M 187.628906 344.644531 C 147.578125 344.644531 109.871094 329.054688 81.574219 300.699219 C 53.214844 272.402344 37.628906 234.691406 37.628906 194.644531 C 37.628906 154.597656 53.214844 116.886719 81.574219 88.589844 C 109.871094 60.230469 147.578125 44.644531 187.628906 44.644531 C 227.675781 44.644531 265.386719 60.230469 293.683594 88.589844 C 322.039062 116.945312 337.628906 154.597656 337.628906 194.644531 C 337.628906 234.691406 322.039062 272.402344 293.683594 300.699219 C 265.386719 329.054688 227.675781 344.644531 187.628906 344.644531 Z M 187.628906 53.636719 C 149.976562 53.636719 114.546875 68.324219 87.925781 94.945312 C 61.308594 121.5625 46.621094 156.996094 46.621094 194.644531 C 46.621094 232.292969 61.308594 267.726562 87.925781 294.34375 C 114.546875 320.964844 149.976562 335.652344 187.628906 335.652344 C 225.277344 335.652344 260.710938 320.964844 287.328125 294.34375 C 313.945312 267.726562 328.636719 232.292969 328.636719 194.644531 C 328.636719 156.996094 313.945312 121.5625 287.328125 94.945312 C 260.710938 68.324219 225.277344 53.636719 187.628906 53.636719 Z M 187.628906 53.636719 " clip-rule="nonzero"/></clipPath></defs><g clip-path="url(#4de3f29c13)"><g clip-path="url(#8050c763e1)"><path fill="#000000" d="M 37.628906 44.644531 L 337.628906 44.644531 L 337.628906 344.644531 L 37.628906 344.644531 Z M 37.628906 44.644531 " fill-opacity="1" fill-rule="nonzero"/></g></g><path fill="#000000" d="M 218.457031 112.839844 C 217.847656 112.277344 216.898438 112.3125 216.335938 112.921875 L 204.148438 126.074219 L 203.316406 125.300781 L 215.503906 112.152344 C 216.066406 111.542969 216.03125 110.59375 215.421875 110.03125 C 214.816406 109.464844 213.867188 109.503906 213.300781 110.109375 L 201.117188 123.261719 L 200.285156 122.492188 L 212.472656 109.339844 C 213.035156 108.730469 213 107.785156 212.390625 107.21875 C 211.785156 106.65625 210.835938 106.691406 210.269531 107.300781 L 198.085938 120.453125 L 197.253906 119.683594 L 209.441406 106.53125 C 210.003906 105.921875 209.96875 104.972656 209.359375 104.410156 C 208.75 103.847656 207.804688 103.882812 207.238281 104.492188 L 195.054688 117.644531 L 195.050781 117.640625 L 194.667969 118.035156 C 194.332031 118.40625 194.027344 118.769531 193.75 119.148438 L 193.738281 119.160156 C 192.707031 120.558594 192.117188 122.015625 192.121094 123.71875 C 192.125 125.507812 192.753906 127.203125 193.898438 128.59375 C 193.128906 129.40625 189.703125 132.75 185.570312 136.761719 C 180.632812 131.511719 176.265625 126.851562 175.386719 125.828125 C 176.664062 124.410156 177.417969 122.648438 177.507812 120.753906 C 177.59375 118.945312 177.042969 117.378906 176.023438 115.847656 L 176.027344 115.847656 L 176.007812 115.828125 C 175.738281 115.417969 175.429688 115.011719 175.09375 114.605469 L 174.710938 114.167969 L 174.703125 114.171875 L 173.207031 112.613281 C 164.976562 105.425781 160.886719 104.800781 158.488281 106.855469 C 155.683594 109.257812 154.730469 113.4375 161.023438 123.082031 L 162.410156 124.925781 L 162.410156 124.929688 L 162.5625 125.113281 C 164.25 127.152344 165.867188 128.308594 168.207031 128.601562 C 169.980469 128.824219 171.742188 128.445312 173.289062 127.539062 C 174.167969 128.597656 178.140625 133.808594 182.582031 139.65625 C 176.472656 145.570312 169.871094 151.945312 168.15625 153.648438 C 166.953125 154.792969 166.292969 155.574219 166.292969 155.574219 C 165.125 156.835938 165.210938 158.808594 166.476562 159.984375 C 167.75 161.164062 169.722656 161.097656 170.894531 159.835938 C 170.894531 159.835938 171.71875 158.960938 172.445312 158.109375 L 172.449219 158.117188 C 173.515625 156.886719 179.464844 149.746094 185.109375 142.984375 C 190.402344 149.960938 195.65625 156.894531 196.65625 158.160156 L 196.660156 158.152344 C 197.386719 159.089844 198.21875 160.054688 198.21875 160.054688 C 199.394531 161.449219 201.484375 161.617188 202.886719 160.433594 C 204.289062 159.25 204.476562 157.160156 203.300781 155.769531 C 203.300781 155.769531 202.636719 154.910156 201.417969 153.636719 C 199.804688 151.875 193.882812 145.597656 188.078125 139.429688 C 191.859375 134.914062 195.03125 131.144531 195.800781 130.296875 C 197.21875 131.21875 198.859375 131.652344 200.539062 131.519531 C 202.753906 131.347656 204.332031 130.332031 206.007812 128.484375 L 206.160156 128.3125 L 206.164062 128.3125 L 218.535156 114.957031 C 219.097656 114.351562 219.0625 113.402344 218.457031 112.839844 " fill-opacity="1" fill-rule="nonzero"/><g fill="#000000" fill-opacity="1"><g transform="translate(143.596526, 216.514162)"><g><path d="M 11.546875 -20.46875 C 13.046875 -20.46875 14.523438 -20.160156 15.984375 -19.546875 C 17.453125 -18.929688 18.695312 -18.097656 19.71875 -17.046875 L 16.734375 -13.515625 C 16.078125 -14.328125 15.285156 -14.96875 14.359375 -15.4375 C 13.441406 -15.914062 12.53125 -16.15625 11.625 -16.15625 C 10.019531 -16.15625 8.675781 -15.585938 7.59375 -14.453125 C 6.507812 -13.328125 5.96875 -11.929688 5.96875 -10.265625 C 5.96875 -8.566406 6.507812 -7.144531 7.59375 -6 C 8.675781 -4.863281 10.019531 -4.296875 11.625 -4.296875 C 12.476562 -4.296875 13.363281 -4.503906 14.28125 -4.921875 C 15.195312 -5.347656 16.015625 -5.929688 16.734375 -6.671875 L 19.75 -3.484375 C 18.644531 -2.359375 17.34375 -1.457031 15.84375 -0.78125 C 14.34375 -0.101562 12.851562 0.234375 11.375 0.234375 C 8.3125 0.234375 5.765625 -0.757812 3.734375 -2.75 C 1.710938 -4.738281 0.703125 -7.222656 0.703125 -10.203125 C 0.703125 -13.128906 1.734375 -15.570312 3.796875 -17.53125 C 5.867188 -19.488281 8.453125 -20.46875 11.546875 -20.46875 Z M 11.546875 -20.46875 "/></g></g></g><g fill="#000000" fill-opacity="1"><g transform="translate(165.689118, 216.514162)"><g><path d="M 20.765625 0 L 15.609375 0 L 15.609375 -7.890625 L 7.1875 -7.890625 L 7.1875 0 L 2.03125 0 L 2.03125 -20.296875 L 7.1875 -20.296875 L 7.1875 -11.953125 L 15.609375 -11.953125 L 15.609375 -20.296875 L 20.765625 -20.296875 Z M 20.765625 0 "/></g></g></g><g fill="#000000" fill-opacity="1"><g transform="translate(190.506971, 216.514162)"><g><path d="M 17.921875 -16.234375 L 7.1875 -16.234375 L 7.1875 -12.203125 L 16.875 -12.203125 L 16.875 -8.15625 L 7.1875 -8.15625 L 7.1875 -4.0625 L 18.234375 -4.0625 L 18.234375 0 L 2.03125 0 L 2.03125 -20.296875 L 17.921875 -20.296875 Z M 17.921875 -16.234375 "/></g></g></g><g fill="#000000" fill-opacity="1"><g transform="translate(212.077704, 216.514162)"><g><path d="M 18.5625 -17 L 7.71875 -4.09375 L 18.734375 -4.09375 L 18.734375 0 L 0.8125 0 L 0.8125 -3.3125 L 11.6875 -16.21875 L 1.1875 -16.21875 L 1.1875 -20.296875 L 18.5625 -20.296875 Z M 18.5625 -17 "/></g></g></g><g fill="#000000" fill-opacity="1"><g transform="translate(153.698088, 250.26416)"><g><path d="M 15.25 0 L 9.890625 -7.96875 L 7.1875 -4.984375 L 7.1875 0 L 2.03125 0 L 2.03125 -20.296875 L 7.1875 -20.296875 L 7.1875 -11.515625 L 14.96875 -20.296875 L 20.9375 -20.296875 L 13.390625 -11.890625 L 21.4375 0 Z M 15.25 0 "/></g></g></g><g fill="#000000" fill-opacity="1"><g transform="translate(177.385241, 250.26416)"><g><path d="M 7.1875 0 L 2.03125 0 L 2.03125 -20.296875 L 7.1875 -20.296875 Z M 7.1875 0 "/></g></g></g><g fill="#000000" fill-opacity="1"><g transform="translate(188.634749, 250.26416)"><g><path d="M 15.25 0 L 9.890625 -7.96875 L 7.1875 -4.984375 L 7.1875 0 L 2.03125 0 L 2.03125 -20.296875 L 7.1875 -20.296875 L 7.1875 -11.515625 L 14.96875 -20.296875 L 20.9375 -20.296875 L 13.390625 -11.890625 L 21.4375 0 Z M 15.25 0 "/></g></g></g><g fill="#000000" fill-opacity="1"><g transform="translate(212.321903, 250.26416)"><g><path d="M 7.1875 0 L 2.03125 0 L 2.03125 -20.296875 L 7.1875 -20.296875 Z M 7.1875 0 "/></g></g></g><g fill="#000000" fill-opacity="1"><g transform="translate(145.989076, 291.799639)"><g><path d="M 1.109375 -8.40625 L 4.546875 -8.40625 C 5.804688 -8.40625 6.84375 -8.007812 7.65625 -7.21875 C 8.476562 -6.425781 8.890625 -5.421875 8.890625 -4.203125 C 8.890625 -2.984375 8.476562 -1.976562 7.65625 -1.1875 C 6.832031 -0.394531 5.785156 0 4.515625 0 L 1.109375 0 Z M 2.515625 -7.125 L 2.515625 -1.265625 L 4.578125 -1.265625 C 5.398438 -1.265625 6.085938 -1.539062 6.640625 -2.09375 C 7.191406 -2.644531 7.46875 -3.34375 7.46875 -4.1875 C 7.46875 -5.03125 7.179688 -5.726562 6.609375 -6.28125 C 6.046875 -6.84375 5.351562 -7.125 4.53125 -7.125 Z M 2.515625 -7.125 "/></g></g></g><g fill="#000000" fill-opacity="1"><g transform="translate(156.129094, 291.799639)"><g><path d="M 7.109375 -7.125 L 2.515625 -7.125 L 2.515625 -4.859375 L 6.625 -4.859375 L 6.625 -3.59375 L 2.515625 -3.59375 L 2.515625 -1.265625 L 7.25 -1.265625 L 7.25 0 L 1.109375 0 L 1.109375 -8.40625 L 7.109375 -8.40625 Z M 7.109375 -7.125 "/></g></g></g><g fill="#000000" fill-opacity="1"><g transform="translate(164.841106, 291.799639)"><g><path d="M 1.109375 -8.40625 L 4.453125 -8.40625 C 5.503906 -8.40625 6.320312 -8.15625 6.90625 -7.65625 C 7.488281 -7.15625 7.78125 -6.445312 7.78125 -5.53125 C 7.78125 -4.582031 7.488281 -3.84375 6.90625 -3.3125 C 6.320312 -2.789062 5.503906 -2.53125 4.453125 -2.53125 L 2.515625 -2.53125 L 2.515625 0 L 1.109375 0 Z M 2.515625 -7.125 L 2.515625 -3.796875 L 4.390625 -3.796875 C 5.742188 -3.796875 6.421875 -4.363281 6.421875 -5.5 C 6.421875 -6.582031 5.742188 -7.125 4.390625 -7.125 Z M 2.515625 -7.125 "/></g></g></g><g fill="#000000" fill-opacity="1"><g transform="translate(173.757122, 291.799639)"><g><path d="M 8.25 -8.40625 L 8.25 -3.484375 C 8.25 -2.390625 7.921875 -1.523438 7.265625 -0.890625 C 6.617188 -0.253906 5.726562 0.0625 4.59375 0.0625 C 3.457031 0.0625 2.5625 -0.253906 1.90625 -0.890625 C 1.257812 -1.523438 0.9375 -2.390625 0.9375 -3.484375 L 0.9375 -8.40625 L 2.359375 -8.40625 L 2.359375 -3.484375 C 2.359375 -2.773438 2.554688 -2.21875 2.953125 -1.8125 C 3.359375 -1.414062 3.910156 -1.21875 4.609375 -1.21875 C 5.296875 -1.21875 5.835938 -1.414062 6.234375 -1.8125 C 6.628906 -2.207031 6.828125 -2.765625 6.828125 -3.484375 L 6.828125 -8.40625 Z M 8.25 -8.40625 "/></g></g></g><g fill="#000000" fill-opacity="1"><g transform="translate(183.765143, 291.799639)"><g><path d="M 2.515625 0 L 1.109375 0 L 1.109375 -8.40625 L 2.515625 -8.40625 Z M 2.515625 0 "/></g></g></g><g fill="#000000" fill-opacity="1"><g transform="translate(188.229153, 291.799639)"><g><path d="M 3.859375 -8.453125 C 4.953125 -8.453125 5.929688 -8.164062 6.796875 -7.59375 L 6.21875 -6.34375 C 5.363281 -6.863281 4.539062 -7.125 3.75 -7.125 C 3.332031 -7.125 3 -7.046875 2.75 -6.890625 C 2.507812 -6.742188 2.390625 -6.53125 2.390625 -6.25 C 2.390625 -5.96875 2.5 -5.726562 2.71875 -5.53125 C 2.945312 -5.34375 3.226562 -5.203125 3.5625 -5.109375 C 3.894531 -5.015625 4.257812 -4.894531 4.65625 -4.75 C 5.050781 -4.613281 5.414062 -4.46875 5.75 -4.3125 C 6.082031 -4.15625 6.359375 -3.910156 6.578125 -3.578125 C 6.796875 -3.242188 6.90625 -2.84375 6.90625 -2.375 C 6.90625 -1.632812 6.609375 -1.046875 6.015625 -0.609375 C 5.429688 -0.171875 4.675781 0.046875 3.75 0.046875 C 3.101562 0.046875 2.476562 -0.0703125 1.875 -0.3125 C 1.28125 -0.550781 0.757812 -0.875 0.3125 -1.28125 L 0.921875 -2.515625 C 1.347656 -2.117188 1.8125 -1.8125 2.3125 -1.59375 C 2.820312 -1.382812 3.304688 -1.28125 3.765625 -1.28125 C 4.265625 -1.28125 4.648438 -1.367188 4.921875 -1.546875 C 5.203125 -1.734375 5.34375 -1.984375 5.34375 -2.296875 C 5.34375 -2.585938 5.226562 -2.832031 5 -3.03125 C 4.78125 -3.226562 4.5 -3.367188 4.15625 -3.453125 C 3.820312 -3.546875 3.457031 -3.660156 3.0625 -3.796875 C 2.675781 -3.929688 2.3125 -4.070312 1.96875 -4.21875 C 1.632812 -4.363281 1.351562 -4.597656 1.125 -4.921875 C 0.90625 -5.253906 0.796875 -5.65625 0.796875 -6.125 C 0.796875 -6.832031 1.078125 -7.394531 1.640625 -7.8125 C 2.203125 -8.238281 2.941406 -8.453125 3.859375 -8.453125 Z M 3.859375 -8.453125 "/></g></g></g><g fill="#000000" fill-opacity="1"><g transform="translate(196.533175, 291.799639)"><g/></g></g><g fill="#000000" fill-opacity="1"><g transform="translate(200.469181, 291.799639)"><g><path d="M 3.21875 0 L 1.796875 0 L 1.796875 -7.140625 L 0.15625 -7.140625 L 0.15625 -8.40625 L 3.21875 -8.40625 Z M 3.21875 0 "/></g></g></g><g fill="#000000" fill-opacity="1"><g transform="translate(205.953195, 291.799639)"><g><path d="M 1.875 -3.328125 L 4.375 -3.328125 L 4.375 -5.3125 L 5.6875 -5.3125 L 5.6875 -3.328125 L 6.90625 -3.328125 L 6.90625 -2.0625 L 5.6875 -2.0625 L 5.6875 0 L 4.375 0 L 4.375 -2.0625 L 0.359375 -2.0625 L 0.359375 -3.125 L 3.234375 -8.40625 L 4.59375 -8.40625 Z M 1.875 -3.328125 "/></g></g></g><g fill="#000000" fill-opacity="1"><g transform="translate(213.981208, 291.799639)"><g><path d="M 3.25 0.0625 C 2.332031 0.0625 1.5 -0.148438 0.75 -0.578125 L 1.296875 -1.640625 C 1.835938 -1.285156 2.457031 -1.109375 3.15625 -1.109375 C 3.945312 -1.109375 4.539062 -1.378906 4.9375 -1.921875 C 5.332031 -2.472656 5.519531 -3.21875 5.5 -4.15625 C 5.050781 -3.363281 4.285156 -2.96875 3.203125 -2.96875 C 2.359375 -2.96875 1.695312 -3.207031 1.21875 -3.6875 C 0.738281 -4.175781 0.5 -4.828125 0.5 -5.640625 C 0.5 -6.503906 0.765625 -7.1875 1.296875 -7.6875 C 1.835938 -8.195312 2.554688 -8.453125 3.453125 -8.453125 C 4.515625 -8.453125 5.347656 -8.09375 5.953125 -7.375 C 6.566406 -6.65625 6.875 -5.65625 6.875 -4.375 C 6.875 -3.03125 6.546875 -1.953125 5.890625 -1.140625 C 5.234375 -0.335938 4.351562 0.0625 3.25 0.0625 Z M 3.46875 -4.078125 C 4.019531 -4.078125 4.457031 -4.226562 4.78125 -4.53125 C 5.113281 -4.84375 5.273438 -5.222656 5.265625 -5.671875 C 5.273438 -6.078125 5.128906 -6.4375 4.828125 -6.75 C 4.523438 -7.070312 4.09375 -7.234375 3.53125 -7.234375 C 3.007812 -7.234375 2.59375 -7.09375 2.28125 -6.8125 C 1.976562 -6.53125 1.828125 -6.132812 1.828125 -5.625 C 1.828125 -5.144531 1.972656 -4.765625 2.265625 -4.484375 C 2.554688 -4.210938 2.957031 -4.078125 3.46875 -4.078125 Z M 3.46875 -4.078125 "/></g></g></g><g fill="#000000" fill-opacity="1"><g transform="translate(222.201229, 291.799639)"><g><path d="M 3.453125 -8.453125 C 4.253906 -8.453125 4.898438 -8.257812 5.390625 -7.875 C 5.878906 -7.5 6.125 -6.988281 6.125 -6.34375 C 6.125 -5.613281 5.613281 -4.695312 4.59375 -3.59375 L 2.40625 -1.265625 L 6.515625 -1.265625 L 6.515625 0 L 0.546875 0 L 0.546875 -1.03125 L 3.640625 -4.359375 C 4.316406 -5.054688 4.65625 -5.648438 4.65625 -6.140625 C 4.65625 -6.472656 4.53125 -6.734375 4.28125 -6.921875 C 4.03125 -7.117188 3.6875 -7.21875 3.25 -7.21875 C 2.488281 -7.21875 1.722656 -6.867188 0.953125 -6.171875 L 0.390625 -7.265625 C 1.378906 -8.054688 2.398438 -8.453125 3.453125 -8.453125 Z M 3.453125 -8.453125 "/></g></g></g></svg>